<svg preserveAspectRatio="none" width="100%" height="100%" overflow="visible" style="display: block;" viewBox="0 0 19 19.3954" fill="none" xmlns="http://www.w3.org/2000/svg">
<g id="Frame" clip-path="url(#clip0_0_216)">
<path id="Vector" d="M18.9631 9.87922C18.9631 9.0846 18.8986 8.50473 18.7591 7.9034H9.68894V11.4899H15.0129C14.9056 12.3812 14.326 13.7235 13.0379 14.6255L13.0199 14.7455L15.8877 16.9681L16.0864 16.9879C17.9111 15.302 18.9631 12.8215 18.9631 9.87922Z" fill="var(--fill-0, #4285F4)"/>
<path id="Vector_2" d="M9.68879 19.3287C12.2971 19.3287 14.4868 18.4696 16.0862 16.9878L13.0378 14.6253C12.222 15.1945 11.1271 15.5918 9.68879 15.5918C7.13412 15.5918 4.96588 13.9059 4.19296 11.5757L4.07967 11.5853L1.09765 13.8941L1.05865 14.0025C2.64727 17.1595 5.9104 19.3287 9.68879 19.3287Z" fill="var(--fill-0, #34A853)"/>
<path id="Vector_3" d="M4.193 11.5758C3.98906 10.9745 3.87103 10.3302 3.87103 9.66443C3.87103 8.99862 3.98906 8.35435 4.18227 7.75302L4.17687 7.62495L1.15748 5.27914L1.05869 5.32615C0.403949 6.63623 0.0282559 8.10739 0.0282559 9.66443C0.0282559 11.2215 0.403949 12.6926 1.05869 14.0026L4.193 11.5758Z" fill="var(--fill-0, #FBBC05)"/>
<path id="Vector_4" d="M9.68879 3.73688C11.5028 3.73688 12.7265 4.52076 13.4242 5.17584L16.1506 2.51274C14.4762 0.955706 12.2971 0 9.68879 0C5.9104 0 2.64727 2.16911 1.05865 5.32612L4.18223 7.75299C4.96588 5.4228 7.13412 3.73688 9.68879 3.73688Z" fill="var(--fill-0, #EB4335)"/>
</g>
<defs>
<clipPath id="clip0_0_216">
<rect width="19" height="19.3954" fill="white"/>
</clipPath>
</defs>
</svg>
