<svg width="385" height="79" viewBox="0 0 385 79" fill="none" xmlns="http://www.w3.org/2000/svg">
  <path d="M70 8H86L110 39.5L86 71H70L92.5 39.5L70 8Z" fill="#001146"/>
  <path d="M0 31.5H43C48.247 31.5 52.5 35.753 52.5 41C52.5 46.247 48.247 50.5 43 50.5H0V31.5Z" fill="#001146"/>
  <path d="M74 39.5C74 58.554 58.554 74 39.5 74C20.446 74 5 58.554 5 39.5C5 20.446 20.446 5 39.5 5C55.924 5 69.666 16.485 73.126 31.856H57.431C54.514 24.71 47.502 19.667 39.5 19.667C28.546 19.667 19.667 28.546 19.667 39.5C19.667 50.454 28.546 59.333 39.5 59.333C47.502 59.333 54.514 54.29 57.431 47.144H34.5V31.856H73.126C73.701 34.339 74 36.895 74 39.5Z" fill="#001146"/>
  <text x="119" y="55" fill="#000000" font-family="Inter, Arial, Helvetica, sans-serif" font-size="48" font-weight="700" letter-spacing="-2.4">edxelera</text>
</svg>
